<?xml version="1.0" encoding="iso-8859-1"?>
<!-- Generator: Adobe Illustrator 19.0.0, SVG Export Plug-In . SVG Version: 6.00 Build 0)  -->
<svg version="1.1" id="Capa_1" xmlns="http://www.w3.org/2000/svg" xmlns:xlink="http://www.w3.org/1999/xlink" x="0px" y="0px"
	 viewBox="0 0 512 512" style="enable-background:new 0 0 512 512;" xml:space="preserve">
<g>
	<g>
		<path d="M184.828,401.651c-3.592,3-8.36,4.188-12.939,3.235c-4.581-0.957-8.472-3.956-10.562-8.142l-38.518-77.129
			c-51.567,24.474-87.313,77.048-87.313,137.821v39.261c0,8.451,6.852,15.303,15.303,15.303h192.259V353.013L184.828,401.651z"/>
	</g>
</g>
<g>
	<g>
		<path d="M391.128,320.55l-37.847,76.165c-2.1,4.227-6.032,7.248-10.656,8.186c-1.012,0.206-2.033,0.307-3.047,0.307
			c-3.62,0-7.161-1.285-9.959-3.684l-55.955-47.961V512h187.539c8.451,0,15.303-6.852,15.303-15.303v-39.261
			C476.506,397.425,441.651,345.411,391.128,320.55z M389.113,466.397h-47.326c-8.452,0-15.303-6.852-15.303-15.303
			c0-8.452,6.852-15.303,15.303-15.303h47.326c8.452,0,15.303,6.852,15.303,15.303C404.416,459.545,397.564,466.397,389.113,466.397
			z"/>
	</g>
</g>
<g>
	<g>
		<path d="M374.564,217.017c0-4.648-0.277-9.232-0.801-13.742c-31.75,18.484-76.726,25.829-117.326,25.829h-0.185
			c-40.761,0-86.13-7.448-117.967-26.24c-0.555,4.642-0.848,9.364-0.848,14.154c0,35.074,15.315,66.635,39.602,88.361
			c-8.604,0.615-17.016,1.934-25.171,3.922l28.193,56.452l42.042-35.118c10.745,3.212,22.121,4.946,33.898,4.946
			c12.864,0,25.253-2.067,36.861-5.873l41.756,35.79l27.662-55.667c-8.821-2.286-17.953-3.788-27.312-4.455
			C359.252,283.648,374.564,252.089,374.564,217.017z"/>
	</g>
</g>
<g>
	<g>
		<path d="M256.454,130.938h-0.217c-55.129,0-106.739,14.39-126.073,20.468c11.634,30.968,69.171,47.092,126.088,47.092h0.185
			c57.306,0,115.237-16.347,126.316-47.731C361.067,144.339,309.494,130.938,256.454,130.938z"/>
	</g>
</g>
<g>
	<g>
		<path d="M433.079,63.126c-1.422-4.877-5.17-8.731-10.007-10.286L261.03,0.735c-3.046-0.979-6.322-0.979-9.37,0L89.617,52.84
			c-4.836,1.555-8.585,5.409-10.007,10.286s-0.331,10.141,2.912,14.052l37.564,45.294c20.539-6.553,75.746-22.141,136.151-22.141
			h0.217c58.74,0,114.169,14.741,136.638,21.551l37.074-44.704C433.41,73.268,434.5,68.004,433.079,63.126z"/>
	</g>
</g>
<g>
</g>
<g>
</g>
<g>
</g>
<g>
</g>
<g>
</g>
<g>
</g>
<g>
</g>
<g>
</g>
<g>
</g>
<g>
</g>
<g>
</g>
<g>
</g>
<g>
</g>
<g>
</g>
<g>
</g>
</svg>
